<svg xmlns="http://www.w3.org/2000/svg" viewBox="0 0 1024 1024" fill="#a8d4f0"><g transform="translate(0,1024) scale(0.1,-0.1)"><path d="M4930 7780 c-247 -34 -429 -140 -508 -299 -35 -69 -40 -75 -89 -93 -116 -43 -204 -166 -239 -333 -23 -110 -24 -393 -1 -583 10 -78 20 -148 23 -156 3 -8 -7 -18 -26 -26 -51 -21 -63 -58 -58 -174 6 -116 33 -208 104 -352 51 -104 104 -171 150 -190 29 -12 33 -20 54 -106 12 -51 40 -136 63 -188 l40 -95 5 -180 c7 -301 -16 -434 -90 -502 -52 -48 -217 -137 -763 -408 -600 -297 -642 -322 -737 -434 -106 -125 -213 -386 -262 -639 -41 -208 -34 -257 45 -297 73 -38 529 -129 872 -174 905 -120 2027 -133 2942 -35 478 51 1075 161 1163 214 18 11 37 32 43 48 32 79 -39 420 -130 633 -103 239 -227 369 -452 472 -148 69 -857 421 -964 479 -207 113 -261 158 -295 248 -10 25 -15 112 -18 302 l-4 267 41 90 c40 90 81 224 81 268 0 18 10 28 44 43 49 21 82 62 138 175 76 151 127 350 113 441 -7 50 -38 94 -66 94 -24 0 -24 11 -2 165 11 81 17 187 17 325 1 187 -1 211 -23 280 -46 148 -132 282 -263 412 -218 215 -427 304 -738 313 -80 2 -174 0 -210 -5z"/></g></svg>

