<svg xmlns="http://www.w3.org/2000/svg" width="480" height="340" viewBox="0 0 480 340" font-family="system-ui,-apple-system,sans-serif"><rect width="480" height="340" fill="#f7f8fa"/><rect x="12" y="12" width="196" height="316" rx="12" fill="#fff" stroke="#e2e5ea" stroke-width="1.5" filter="url(#s)"/><text x="110" y="42" fill="#9ba3ae" font-size="11" text-anchor="middle" font-weight="600" letter-spacing="3">2025</text><circle cx="110" cy="130" r="52" fill="#fee2e2" stroke="#fca5a5" stroke-width="1.5"/><line x1="83" y1="103" x2="137" y2="157" stroke="#ef4444" stroke-width="5" stroke-linecap="round"/><line x1="137" y1="103" x2="83" y2="157" stroke="#ef4444" stroke-width="5" stroke-linecap="round"/><text x="110" y="220" fill="#14171a" font-size="16" text-anchor="middle" font-weight="600">Skeptic</text><text x="110" y="244" fill="#9ba3ae" font-size="12" text-anchor="middle">"AI ships garbage"</text><text x="110" y="264" fill="#9ba3ae" font-size="12" text-anchor="middle">"Ignores design"</text><text x="110" y="284" fill="#9ba3ae" font-size="12" text-anchor="middle">"Not real work"</text><line x1="224" y1="170" x2="248" y2="170" stroke="#2d5a8e" stroke-width="2.5" stroke-linecap="round"/><polygon points="248,163 264,170 248,177" fill="#2d5a8e"/><rect x="272" y="12" width="196" height="316" rx="12" fill="#fff" stroke="#2d5a8e" stroke-width="2" filter="url(#s)"/><text x="370" y="42" fill="#2d5a8e" font-size="11" text-anchor="middle" font-weight="600" letter-spacing="3">2026</text><circle cx="370" cy="130" r="52" fill="#dbeafe" stroke="#2d5a8e" stroke-width="1.5"/><circle cx="370" cy="112" r="18" fill="#2d5a8e"/><path d="M340 152q30-18 60 0" fill="#2d5a8e"/><rect x="348" y="166" width="44" height="18" rx="9" fill="#2d5a8e"/><text x="370" y="179" fill="#fff" font-size="9" text-anchor="middle" font-weight="700">CO-PILOT</text><text x="370" y="220" fill="#14171a" font-size="16" text-anchor="middle" font-weight="600">Squad Leader</text><text x="370" y="244" fill="#2d5a8e" font-size="12" text-anchor="middle">"Direct it"</text><text x="370" y="264" fill="#2d5a8e" font-size="12" text-anchor="middle">"Set the course"</text><text x="370" y="284" fill="#2d5a8e" font-size="12" text-anchor="middle">"Own the output"</text><defs><filter id="s"><feDropShadow dx="0" dy="2" stdDeviation="4" flood-color="#00000012"/></filter></defs></svg>