<svg xmlns="http://www.w3.org/2000/svg" width="260" height="380" viewBox="0 0 260 380" font-family="system-ui,-apple-system,sans-serif"><defs><filter id="s" x="-30%" y="-30%" width="160%" height="160%"><feDropShadow dx="0" dy="6" stdDeviation="12" flood-color="#00000026"/></filter><linearGradient id="screen" x1="0" y1="0" x2="0" y2="1"><stop offset="0" stop-color="#121a24"/><stop offset="1" stop-color="#0c141d"/></linearGradient></defs><ellipse cx="130" cy="366" rx="86" ry="10" fill="#3574b8" opacity=".14"/><rect x="34" y="12" width="192" height="352" rx="30" fill="#1a1d21" stroke="#3a3f47" stroke-width="1.5" filter="url(#s)"/><rect x="44" y="26" width="172" height="324" rx="20" fill="url(#screen)"/><rect x="106" y="18" width="48" height="8" rx="4" fill="#1a1d21"/><rect x="105" y="340" width="50" height="4" rx="2" fill="#3a3f47"/><text x="58" y="48" fill="#9ba3ae" font-size="11" font-weight="500">02:14</text><text x="202" y="48" fill="#9ba3ae" font-size="10" text-anchor="end">● ● ●</text><rect x="56" y="60" width="148" height="50" rx="10" fill="#ef4444"/><text x="130" y="82" fill="#fff" font-size="11" text-anchor="middle" font-weight="800" letter-spacing=".4">PRODUCTION DOWN</text><text x="130" y="99" fill="#ffe1e1" font-size="9.5" text-anchor="middle">api.service: 500 errors</text><rect x="56" y="122" width="148" height="92" rx="10" fill="#16241a" stroke="#2d5a2d" stroke-width="1"/><text x="68" y="144" fill="#4ade80" font-size="9.5" font-family="ui-monospace,Menlo,monospace">$ git blame auth.php</text><text x="68" y="164" fill="#60a5fa" font-size="9.5" font-family="ui-monospace,Menlo,monospace">a4f2c1d (you, 2h ago)</text><text x="68" y="184" fill="#9ba3ae" font-size="9.5" font-family="ui-monospace,Menlo,monospace">return $ai_output;</text><text x="68" y="202" fill="#fbbf24" font-size="9" font-family="ui-monospace,Menlo,monospace">← you shipped this</text><rect x="56" y="226" width="148" height="54" rx="10" fill="#22262b" stroke="#3a3f47" stroke-width="1"/><text x="68" y="248" fill="#9ba3ae" font-size="9.5">PagerDuty · incident #4821</text><text x="68" y="268" fill="#ef4444" font-size="10.5" font-weight="700">On-call: YOU</text></svg>