<svg xmlns="http://www.w3.org/2000/svg" width="480" height="300" viewBox="0 0 480 300" font-family="system-ui,-apple-system,sans-serif"><defs><filter id="s" x="-20%" y="-20%" width="140%" height="140%"><feDropShadow dx="0" dy="3" stdDeviation="6" flood-color="#00000014"/></filter><filter id="d" x="-40%" y="-40%" width="180%" height="180%"><feDropShadow dx="0" dy="2" stdDeviation="4" flood-color="#2d5a8e26"/></filter></defs><rect x="6" y="14" width="196" height="272" rx="14" fill="#fff" stroke="#e2e5ea" stroke-width="1.5" filter="url(#s)"/><text x="104" y="42" fill="#9ba3ae" font-size="10" text-anchor="middle" font-weight="700" letter-spacing="2.5">BEFORE · L1</text><g><rect x="78" y="78" width="74" height="17" rx="8.5" fill="#f0f1f3" stroke="#e2e5ea"/><text x="115" y="90" fill="#9ba3ae" font-size="9" text-anchor="middle">my prompts</text><circle cx="52" cy="86" r="19" fill="#f0f1f3" stroke="#e2e5ea" stroke-width="1.5"/><circle cx="52" cy="78" r="7.5" fill="#b3bac3"/><path d="M38 94q14-8 28 0z" fill="#b3bac3"/></g><g><rect x="30" y="142" width="74" height="17" rx="8.5" fill="#f0f1f3" stroke="#e2e5ea"/><text x="67" y="154" fill="#9ba3ae" font-size="9" text-anchor="middle">my prompts</text><circle cx="150" cy="150" r="19" fill="#f0f1f3" stroke="#e2e5ea" stroke-width="1.5"/><circle cx="150" cy="142" r="7.5" fill="#b3bac3"/><path d="M136 158q14-8 28 0z" fill="#b3bac3"/></g><g><circle cx="64" cy="224" r="19" fill="#f0f1f3" stroke="#e2e5ea" stroke-width="1.5"/><circle cx="64" cy="216" r="7.5" fill="#b3bac3"/><path d="M50 232q14-8 28 0z" fill="#b3bac3"/></g><g><circle cx="152" cy="232" r="19" fill="#f0f1f3" stroke="#e2e5ea" stroke-width="1.5"/><circle cx="152" cy="224" r="7.5" fill="#b3bac3"/><path d="M138 240q14-8 28 0z" fill="#b3bac3"/></g><line x1="216" y1="150" x2="246" y2="150" stroke="#2d5a8e" stroke-width="3" stroke-linecap="round"/><polygon points="244,142 264,150 244,158" fill="#2d5a8e"/><rect x="278" y="14" width="196" height="272" rx="14" fill="#fff" stroke="#2d5a8e" stroke-width="2" filter="url(#s)"/><text x="376" y="42" fill="#2d5a8e" font-size="10" text-anchor="middle" font-weight="700" letter-spacing="2.5">AFTER · L2</text><g stroke="#2d5a8e" stroke-width="1.4" stroke-dasharray="4,3" opacity=".55"><line x1="318" y1="98" x2="332" y2="120"/><line x1="434" y1="98" x2="420" y2="120"/><line x1="318" y1="226" x2="332" y2="204"/><line x1="434" y1="226" x2="420" y2="204"/></g><rect x="326" y="116" width="100" height="92" rx="9" fill="#dbeafe" stroke="#2d5a8e" stroke-width="1.5" filter="url(#d)"/><text x="376" y="138" fill="#2d5a8e" font-size="10" text-anchor="middle" font-weight="800">CLAUDE.md</text><rect x="338" y="148" width="76" height="6" rx="3" fill="#2d5a8e" opacity=".32"/><rect x="338" y="160" width="60" height="6" rx="3" fill="#2d5a8e" opacity=".32"/><rect x="338" y="172" width="68" height="6" rx="3" fill="#2d5a8e" opacity=".32"/><text x="376" y="200" fill="#2d5a8e" font-size="8.5" text-anchor="middle" font-style="italic">git committed</text><g><circle cx="306" cy="84" r="18" fill="#dbeafe" stroke="#2d5a8e" stroke-width="1.5"/><circle cx="306" cy="76" r="7" fill="#2d5a8e"/><path d="M293 91q13-7 26 0z" fill="#2d5a8e"/></g><g><circle cx="446" cy="84" r="18" fill="#dbeafe" stroke="#2d5a8e" stroke-width="1.5"/><circle cx="446" cy="76" r="7" fill="#2d5a8e"/><path d="M433 91q13-7 26 0z" fill="#2d5a8e"/></g><g><circle cx="306" cy="240" r="18" fill="#dbeafe" stroke="#2d5a8e" stroke-width="1.5"/><circle cx="306" cy="232" r="7" fill="#2d5a8e"/><path d="M293 247q13-7 26 0z" fill="#2d5a8e"/></g><g><circle cx="446" cy="240" r="18" fill="#dbeafe" stroke="#2d5a8e" stroke-width="1.5"/><circle cx="446" cy="232" r="7" fill="#2d5a8e"/><path d="M433 247q13-7 26 0z" fill="#2d5a8e"/></g><text x="376" y="270" fill="#9ba3ae" font-size="9" text-anchor="middle">AI is a team skill now</text></svg>