<svg xmlns="http://www.w3.org/2000/svg" width="480" height="300" viewBox="0 0 480 300" font-family="system-ui,-apple-system,sans-serif"><defs><filter id="s" x="-20%" y="-20%" width="140%" height="140%"><feDropShadow dx="0" dy="3" stdDeviation="6" flood-color="#00000014"/></filter></defs><rect x="6" y="12" width="128" height="276" rx="13" fill="#fff" stroke="#e2e5ea" stroke-width="1.5" filter="url(#s)"/><text x="70" y="40" fill="#9ba3ae" font-size="9" text-anchor="middle" font-weight="700" letter-spacing="1.5">MODEL ALONE</text><path d="M70 62C52 62 40 74 40 90c-7 4-9 14-2 20-5 10 2 22 14 23 4 15 32 15 36 0 12-1 19-13 14-23 7-6 5-16-2-20 0-16-12-28-30-28z" fill="#dbeafe" stroke="#2d5a8e" stroke-width="1.5" stroke-linejoin="round"/><g fill="none" stroke="#2d5a8e" stroke-width="1.4" stroke-linecap="round"><path d="M70 68v70"/><path d="M70 84q-13 4-16 16M70 84q13 4 16 16"/><path d="M70 106q-14 4-18 14m18-14q14 4 18 14"/></g><text x="70" y="196" fill="#5a6370" font-size="13" text-anchor="middle">Intelligence ✓</text><text x="70" y="220" fill="#ef4444" font-size="13" text-anchor="middle" font-weight="700">Reach ✗</text><text x="70" y="250" fill="#9ba3ae" font-size="10" text-anchor="middle">Knows nothing</text><text x="70" y="265" fill="#9ba3ae" font-size="10" text-anchor="middle">about you</text><text x="155" y="158" fill="#b3bac3" font-size="29" text-anchor="middle" font-weight="500">+</text><rect x="176" y="12" width="128" height="276" rx="13" fill="#fff" stroke="#2d5a8e" stroke-width="1.5" filter="url(#s)"/><text x="240" y="40" fill="#2d5a8e" font-size="9" text-anchor="middle" font-weight="700" letter-spacing="1.5">YOUR CONTEXT</text><rect x="196" y="58" width="88" height="112" rx="7" fill="#f7f8fa" stroke="#e2e5ea" stroke-width="1"/><g fill="#dbeafe"><rect x="206" y="72" width="68" height="7" rx="3.5"/><rect x="206" y="86" width="54" height="7" rx="3.5"/><rect x="206" y="100" width="62" height="7" rx="3.5"/><rect x="206" y="114" width="46" height="7" rx="3.5"/><rect x="206" y="128" width="58" height="7" rx="3.5"/><rect x="206" y="142" width="50" height="7" rx="3.5"/></g><text x="240" y="196" fill="#9ba3ae" font-size="10" text-anchor="middle">schema</text><text x="240" y="212" fill="#9ba3ae" font-size="10" text-anchor="middle">conventions</text><text x="240" y="228" fill="#9ba3ae" font-size="10" text-anchor="middle">CLAUDE.md · rules</text><text x="240" y="258" fill="#2d5a8e" font-size="10" text-anchor="middle" font-weight="600">✓ committed</text><text x="325" y="158" fill="#b3bac3" font-size="29" text-anchor="middle" font-weight="500">=</text><rect x="346" y="12" width="128" height="276" rx="13" fill="#2d5a8e" filter="url(#s)"/><text x="410" y="40" fill="#bcd4f0" font-size="9" text-anchor="middle" font-weight="700" letter-spacing="1.5">MODEL + CONTEXT</text><g transform="translate(373.5,49) scale(1.02)" fill="#fff"><path d="M8 70C2 58 1 46 6 44s10 5 12 13V30c0-6 2-8 5.5-8S29 24 29 30V50c0 3 3 3 3.5.0L33 20c0-6 2-8 5.5-8S44 14 44 20V49c0 3 3 3 3.5.0L48 24c0-6 2-8 5.5-8S59 18 59 24V50c0 3 3 3 3.5.0L63 36c0-6 2-8 5-8s5 2 5 8V72c0 20-10 32-29 32-18 0-30-10-34-24-.5-3-1-7-2-10z"/></g><text x="410" y="196" fill="#fff" font-size="13" text-anchor="middle" font-weight="700">Intelligence ✓</text><text x="410" y="220" fill="#fff" font-size="13" text-anchor="middle" font-weight="700">Reach ✓</text><rect x="354" y="234" width="112" height="40" rx="9" fill="#fff" opacity=".14"/><text x="410" y="251" fill="#fff" font-size="9" text-anchor="middle" font-weight="600">Weak model + great context</text><text x="410" y="265" fill="#fff" font-size="9" text-anchor="middle" font-weight="600">beats frontier with none</text></svg>