<svg xmlns="http://www.w3.org/2000/svg" width="480" height="300" viewBox="0 0 480 300" font-family="system-ui,-apple-system,sans-serif"><rect width="480" height="300" fill="#f7f8fa"/><defs><filter id="s"><feDropShadow dx="0" dy="2" stdDeviation="4" flood-color="#00000016"/></filter></defs><rect x="184" y="7" width="112" height="26" rx="13" fill="#2d5a8e" filter="url(#s)"/><text x="240" y="24" fill="#fff" font-size="11" text-anchor="middle" font-weight="700" letter-spacing="2">AP · ON</text><rect x="6" y="40" width="148" height="254" rx="12" fill="#fff" stroke="#22c55e" stroke-width="2.5" filter="url(#s)"/><text x="80" y="65" fill="#22c55e" font-size="14" text-anchor="middle" font-weight="700" letter-spacing="2">SHIP</text><path d="M22 155a58 58 0 01116 0" fill="none" stroke="#eef0f3" stroke-width="12" stroke-linecap="round"/><path d="M22 155a58 58 0 0192-47" fill="none" stroke="#22c55e" stroke-width="12" stroke-linecap="round"/><circle cx="114" cy="108" r="7" fill="#fff" stroke="#22c55e" stroke-width="3"/><text x="80" y="184" fill="#14171a" font-size="12" text-anchor="middle" font-weight="600">Low risk</text><text x="80" y="201" fill="#9ba3ae" font-size="10" text-anchor="middle">No review needed</text><text x="80" y="216" fill="#9ba3ae" font-size="10" text-anchor="middle">Auto-merge OK</text><rect x="18" y="238" width="120" height="26" rx="13" fill="#dcfce7"/><text x="78" y="255" fill="#16a34a" font-size="10" text-anchor="middle" font-weight="700">✓ go ahead</text><rect x="166" y="40" width="148" height="254" rx="12" fill="#fff" stroke="#f59e0b" stroke-width="2.5" filter="url(#s)"/><text x="240" y="65" fill="#b45309" font-size="14" text-anchor="middle" font-weight="700" letter-spacing="2">SHOW</text><path d="M182 155a58 58 0 01116 0" fill="none" stroke="#eef0f3" stroke-width="12" stroke-linecap="round"/><path d="M182 155a58 58 0 0158-58" fill="none" stroke="#f59e0b" stroke-width="12" stroke-linecap="round"/><circle cx="240" cy="97" r="7" fill="#fff" stroke="#f59e0b" stroke-width="3"/><text x="240" y="184" fill="#14171a" font-size="12" text-anchor="middle" font-weight="600">Notify team</text><text x="240" y="201" fill="#9ba3ae" font-size="10" text-anchor="middle">Do it, then tell</text><text x="240" y="216" fill="#9ba3ae" font-size="10" text-anchor="middle">teammates what happened</text><rect x="178" y="238" width="124" height="26" rx="13" fill="#fef9c3"/><text x="240" y="255" fill="#b45309" font-size="10" text-anchor="middle" font-weight="700">→ share the diff</text><rect x="326" y="40" width="148" height="254" rx="12" fill="#fff" stroke="#ef4444" stroke-width="2.5" filter="url(#s)"/><text x="400" y="65" fill="#ef4444" font-size="14" text-anchor="middle" font-weight="700" letter-spacing="2">ASK</text><path d="M342 155a58 58 0 01116 0" fill="none" stroke="#eef0f3" stroke-width="12" stroke-linecap="round"/><path d="M342 155a58 58 0 0111-34" fill="none" stroke="#ef4444" stroke-width="12" stroke-linecap="round"/><circle cx="353" cy="121" r="7" fill="#fff" stroke="#ef4444" stroke-width="3"/><text x="400" y="184" fill="#14171a" font-size="12" text-anchor="middle" font-weight="600">High risk</text><text x="400" y="201" fill="#9ba3ae" font-size="10" text-anchor="middle">Irreversible, security,</text><text x="400" y="216" fill="#9ba3ae" font-size="10" text-anchor="middle">money or migrations</text><rect x="338" y="238" width="124" height="26" rx="13" fill="#fee2e2"/><text x="400" y="255" fill="#ef4444" font-size="10" text-anchor="middle" font-weight="700">✋ get approval</text></svg>