<svg width="1280" height="720" viewBox="0 0 1280 720" xmlns="http://www.w3.org/2000/svg"><defs><linearGradient id="t" x1="0" y1="0" x2="1" y2="0"><stop offset="0" stop-color="#2d5a8e" stop-opacity=".7"/><stop offset=".5" stop-color="#3574b8" stop-opacity=".45"/><stop offset=".8" stop-color="#9ba3ae" stop-opacity=".3"/><stop offset="1" stop-color="#9ba3ae" stop-opacity="0"/></linearGradient><linearGradient id="cr" x1="0" y1="0" x2="1" y2="0"><stop offset="0" stop-color="#ef4444" stop-opacity=".55"/><stop offset="1" stop-color="#ef4444" stop-opacity=".15"/></linearGradient><linearGradient id="haze" x1="0" y1="0" x2="1" y2="0"><stop offset="0" stop-color="#dbeafe" stop-opacity=".16"/><stop offset="1" stop-color="#dbeafe" stop-opacity="0"/></linearGradient></defs><rect x="0" y="0" width="220" height="720" fill="url(#haze)"/><g opacity=".4"><rect x="40" y="20" width="300" height="1.6" rx="1" fill="url(#t)"/><rect x="120" y="32" width="220" height="1.3" rx="1" fill="url(#t)" opacity=".7"/></g><g opacity=".5"><rect x="56" y="664" width="360" height="2.4" rx="1.2" fill="url(#t)"/><g fill="#3574b8"><rect x="440" y="664.5" width="40" height="2.2" opacity=".4"/><rect x="498" y="664.5" width="30" height="2.2" opacity=".32"/><rect x="546" y="665" width="22" height="2" opacity=".26"/></g><g fill="#2d5a8e"><rect x="592" y="660" width="14" height="2.2" opacity=".3"/><rect x="618" y="668" width="12" height="2" opacity=".26"/><rect x="644" y="662" width="10" height="2" opacity=".24"/></g><g fill="#9ba3ae"><circle cx="700" cy="661" r="2.2" opacity=".3"/><circle cx="726" cy="669" r="1.8" opacity=".26"/><circle cx="752" cy="660" r="2" opacity=".24"/><circle cx="782" cy="669" r="1.6" opacity=".22"/><circle cx="812" cy="662" r="1.8" opacity=".2"/></g></g><g opacity=".32"><path d="M1120 40l60-2-30 18" fill="#3574b8" fill-opacity=".4"/><path d="M1186 64l54-4-32 20" fill="#2d5a8e" fill-opacity=".34"/><polygon points="1212,28 1252,24 1228,42" fill="#9ba3ae" fill-opacity=".3"/><path d="M1160 30l28 28-14 12 32 26" fill="none" stroke="url(#cr)" stroke-width="1.6" stroke-linecap="round" stroke-linejoin="round"/></g></svg>